<svg xmlns="http://www.w3.org/2000/svg" version="1.1" xmlns:xlink="http://www.w3.org/1999/xlink" xmlns:svgjs="http://svgjs.dev/svgjs" width="2000" height="1252" viewBox="0 0 2000 1252"><g transform="matrix(1,0,0,1,-1.2121212121212466,-2.01935483870966)"><svg viewBox="0 0 396 248" data-background-color="#ffffff" preserveAspectRatio="xMidYMid meet" height="1252" width="2000" xmlns="http://www.w3.org/2000/svg" xmlns:xlink="http://www.w3.org/1999/xlink"><g id="tight-bounds" transform="matrix(1,0,0,1,0.2400000000000091,0.4000000000000057)"><svg viewBox="0 0 395.52 247.2" height="247.2" width="395.52"><g><svg></svg></g><g><svg viewBox="0 0 395.52 247.2" height="247.2" width="395.52"><g transform="matrix(1,0,0,1,75.54432000000001,48.936932522361374)"><svg viewBox="0 0 244.43135999999996 149.32613495527724" height="149.32613495527724" width="244.43135999999996"><g><svg viewBox="0 0 244.43135999999996 149.32613495527724" height="149.32613495527724" width="244.43135999999996"><g><svg viewBox="0 0 244.43135999999996 149.32613495527724" height="149.32613495527724" width="244.43135999999996"><g id="textblocktransform"><svg viewBox="0 0 244.43135999999996 149.32613495527724" height="149.32613495527724" width="244.43135999999996" id="textblock"><g><svg viewBox="0 0 244.43135999999996 149.32613495527724" height="149.32613495527724" width="244.43135999999996"><g transform="matrix(1,0,0,1,0,0)"><svg width="244.43135999999996" viewBox="1 -33.65 55.9 34.15" height="149.32613495527724" data-palette-color="#d498ca"><path d="M5.5-29.85L1-31.05 1.65-33Q3.45-32.9 5.15-32.85 6.85-32.8 9.2-32.8L9.2-32.8Q11.35-32.8 13.65-32.85 15.95-32.9 18.05-33L18.05-33 18.75-31.05 13.05-29.9Q13-25.75 13-22.4 13-19.05 13-15.65L13-15.65Q13-13.05 12.98-9.68 12.95-6.3 13.05-3.45L13.05-3.45Q16.15-3.1 18.82-3.3 21.5-3.5 23.65-4.45L23.65-4.45 24.8-10.5 28-10.5Q28-8.2 28.13-5.33 28.25-2.45 28.45 0L28.45 0Q22.35-0.1 17.6-0.13 12.85-0.15 9.4-0.15L9.4-0.15Q6.85-0.15 5.03-0.1 3.2-0.05 1.65 0L1.65 0 1.05-1.9 5.5-2.95Q5.6-6.9 5.68-9.83 5.75-12.75 5.75-15.15L5.75-15.15Q5.75-18.55 5.78-22.18 5.8-25.8 5.5-29.85L5.5-29.85ZM45.2-33.65L45.2-33.65Q47.95-33.65 50.8-33.02 53.65-32.4 55.7-31.35L55.7-31.35Q55.2-28.9 54.8-27.08 54.4-25.25 54-23.3L54-23.3 50.8-23.3 50.3-28.75Q49.6-29.75 48.12-30.28 46.65-30.8 45.05-30.8L45.05-30.8Q43.1-30.8 41.55-29.7 40-28.6 40-26.5L40-26.5Q40-24.85 41.22-23.73 42.45-22.6 44.37-21.68 46.3-20.75 48.45-19.75 50.6-18.75 52.52-17.38 54.45-16 55.67-13.95 56.9-11.9 56.9-8.85L56.9-8.85Q56.9-5.55 55.05-3.48 53.2-1.4 50.27-0.45 47.35 0.5 44.05 0.5L44.05 0.5Q41 0.5 38.05-0.25 35.1-1 32.95-2.35L32.95-2.35Q33.5-4.6 33.87-6.38 34.25-8.15 34.6-10.6L34.6-10.6 37.85-10.6 38.55-4.1Q39.7-3.3 41.02-2.85 42.35-2.4 43.8-2.4L43.8-2.4Q46.15-2.4 47.92-3.58 49.7-4.75 49.7-7.45L49.7-7.45Q49.7-9.55 48.52-10.85 47.35-12.15 45.5-13.05 43.65-13.95 41.57-14.8 39.5-15.65 37.65-16.8 35.8-17.95 34.62-19.75 33.45-21.55 33.45-24.4L33.45-24.4Q33.45-27.5 35.07-29.55 36.7-31.6 39.37-32.63 42.05-33.65 45.2-33.65Z" opacity="1" transform="matrix(1,0,0,1,0,0)" fill="#d498ca" class="wordmark-text-0" data-fill-palette-color="primary" id="text-0"></path></svg></g></svg></g></svg></g></svg></g></svg></g></svg></g><g><path d="M0 123.6c0-68.262 55.338-123.6 123.6-123.6 31.569 0 60.374 11.835 82.219 31.311l-10.513 0c-19.797-15.404-44.68-24.578-71.706-24.578-64.544 0-116.867 52.323-116.867 116.867 0 64.544 52.323 116.867 116.867 116.867 27.026 0 51.91-9.174 71.706-24.578l10.513 0c-21.845 19.476-50.65 31.311-82.219 31.311-68.262 0-123.6-55.338-123.6-123.6z" fill="#d498ca" stroke="transparent" data-fill-palette-color="tertiary"></path></g></svg></g><defs></defs></svg><rect width="395.52" height="247.2" fill="none" stroke="none" visibility="hidden"></rect></g></svg></g></svg>